<mxfile host="Electron" agent="Mozilla/5.0 (Windows NT 10.0; Win64; x64) AppleWebKit/537.36 (KHTML, like Gecko) draw.io/27.0.2 Chrome/134.0.6998.205 Electron/35.3.0 Safari/537.36" version="27.0.2">
  <diagram name="PÃ¡gina-1" id="g1Bk9jPLJ0UDbkkC6ORk">
    <mxGraphModel dx="727" dy="1610" grid="1" gridSize="10" guides="1" tooltips="1" connect="1" arrows="1" fold="1" page="1" pageScale="1" pageWidth="827" pageHeight="1169" math="0" shadow="0">
      <root>
        <mxCell id="0" />
        <mxCell id="1" parent="0" />
        <mxCell id="PIqyHLtoEeau26eMTD7V-37" value="1" style="edgeStyle=none;shape=connector;rounded=0;orthogonalLoop=1;jettySize=auto;html=1;strokeColor=default;align=center;verticalAlign=middle;fontFamily=Helvetica;fontSize=11;fontColor=default;labelBackgroundColor=default;startFill=0;endArrow=none;" parent="1" source="PIqyHLtoEeau26eMTD7V-1" target="PIqyHLtoEeau26eMTD7V-36" edge="1">
          <mxGeometry relative="1" as="geometry" />
        </mxCell>
        <mxCell id="PIqyHLtoEeau26eMTD7V-1" value="usuarios" style="rounded=0;whiteSpace=wrap;html=1;" parent="1" vertex="1">
          <mxGeometry x="190" y="-15" width="120" height="60" as="geometry" />
        </mxCell>
        <mxCell id="PIqyHLtoEeau26eMTD7V-44" value="1" style="edgeStyle=none;shape=connector;rounded=0;orthogonalLoop=1;jettySize=auto;html=1;strokeColor=default;align=center;verticalAlign=middle;fontFamily=Helvetica;fontSize=11;fontColor=default;labelBackgroundColor=default;startFill=0;endArrow=none;" parent="1" source="PIqyHLtoEeau26eMTD7V-2" target="PIqyHLtoEeau26eMTD7V-43" edge="1">
          <mxGeometry relative="1" as="geometry" />
        </mxCell>
        <mxCell id="PIqyHLtoEeau26eMTD7V-47" style="edgeStyle=none;shape=connector;rounded=0;orthogonalLoop=1;jettySize=auto;html=1;strokeColor=default;align=center;verticalAlign=middle;fontFamily=Helvetica;fontSize=11;fontColor=default;labelBackgroundColor=default;startFill=0;endArrow=none;" parent="1" source="PIqyHLtoEeau26eMTD7V-2" target="PIqyHLtoEeau26eMTD7V-14" edge="1">
          <mxGeometry relative="1" as="geometry" />
        </mxCell>
        <mxCell id="PIqyHLtoEeau26eMTD7V-48" style="edgeStyle=none;shape=connector;rounded=0;orthogonalLoop=1;jettySize=auto;html=1;strokeColor=default;align=center;verticalAlign=middle;fontFamily=Helvetica;fontSize=11;fontColor=default;labelBackgroundColor=default;startFill=0;endArrow=none;" parent="1" source="PIqyHLtoEeau26eMTD7V-2" target="PIqyHLtoEeau26eMTD7V-16" edge="1">
          <mxGeometry relative="1" as="geometry">
            <mxPoint x="110" y="418.14292781313543" as="sourcePoint" />
          </mxGeometry>
        </mxCell>
        <mxCell id="PIqyHLtoEeau26eMTD7V-49" style="edgeStyle=none;shape=connector;rounded=0;orthogonalLoop=1;jettySize=auto;html=1;strokeColor=default;align=center;verticalAlign=middle;fontFamily=Helvetica;fontSize=11;fontColor=default;labelBackgroundColor=default;startFill=0;endArrow=none;" parent="1" source="PIqyHLtoEeau26eMTD7V-2" target="PIqyHLtoEeau26eMTD7V-17" edge="1">
          <mxGeometry relative="1" as="geometry">
            <mxPoint x="110" y="437.4595218500008" as="sourcePoint" />
          </mxGeometry>
        </mxCell>
        <mxCell id="PIqyHLtoEeau26eMTD7V-50" style="edgeStyle=none;shape=connector;rounded=0;orthogonalLoop=1;jettySize=auto;html=1;strokeColor=default;align=center;verticalAlign=middle;fontFamily=Helvetica;fontSize=11;fontColor=default;labelBackgroundColor=default;startFill=0;endArrow=none;" parent="1" source="PIqyHLtoEeau26eMTD7V-2" target="PIqyHLtoEeau26eMTD7V-18" edge="1">
          <mxGeometry relative="1" as="geometry" />
        </mxCell>
        <mxCell id="PIqyHLtoEeau26eMTD7V-51" style="edgeStyle=none;shape=connector;rounded=0;orthogonalLoop=1;jettySize=auto;html=1;strokeColor=default;align=center;verticalAlign=middle;fontFamily=Helvetica;fontSize=11;fontColor=default;labelBackgroundColor=default;startFill=0;endArrow=none;" parent="1" source="PIqyHLtoEeau26eMTD7V-2" target="PIqyHLtoEeau26eMTD7V-19" edge="1">
          <mxGeometry relative="1" as="geometry" />
        </mxCell>
        <mxCell id="PIqyHLtoEeau26eMTD7V-52" style="edgeStyle=none;shape=connector;rounded=0;orthogonalLoop=1;jettySize=auto;html=1;strokeColor=default;align=center;verticalAlign=middle;fontFamily=Helvetica;fontSize=11;fontColor=default;labelBackgroundColor=default;startFill=0;endArrow=none;" parent="1" source="PIqyHLtoEeau26eMTD7V-2" target="PIqyHLtoEeau26eMTD7V-20" edge="1">
          <mxGeometry relative="1" as="geometry" />
        </mxCell>
        <mxCell id="PIqyHLtoEeau26eMTD7V-63" value="1" style="edgeStyle=none;shape=connector;rounded=0;orthogonalLoop=1;jettySize=auto;html=1;strokeColor=default;align=center;verticalAlign=middle;fontFamily=Helvetica;fontSize=11;fontColor=default;labelBackgroundColor=default;startFill=0;endArrow=none;" parent="1" source="PIqyHLtoEeau26eMTD7V-2" target="PIqyHLtoEeau26eMTD7V-62" edge="1">
          <mxGeometry relative="1" as="geometry" />
        </mxCell>
        <mxCell id="PIqyHLtoEeau26eMTD7V-2" value="rifas" style="rounded=0;whiteSpace=wrap;html=1;" parent="1" vertex="1">
          <mxGeometry x="210" y="390" width="120" height="60" as="geometry" />
        </mxCell>
        <mxCell id="PIqyHLtoEeau26eMTD7V-45" value="N" style="edgeStyle=none;shape=connector;rounded=0;orthogonalLoop=1;jettySize=auto;html=1;strokeColor=default;align=center;verticalAlign=middle;fontFamily=Helvetica;fontSize=11;fontColor=default;labelBackgroundColor=default;startFill=0;endArrow=oval;startArrow=none;endFill=1;" parent="1" source="PIqyHLtoEeau26eMTD7V-3" target="PIqyHLtoEeau26eMTD7V-43" edge="1">
          <mxGeometry relative="1" as="geometry" />
        </mxCell>
        <mxCell id="PIqyHLtoEeau26eMTD7V-66" value="N" style="edgeStyle=none;shape=connector;rounded=0;orthogonalLoop=1;jettySize=auto;html=1;strokeColor=default;align=center;verticalAlign=middle;fontFamily=Helvetica;fontSize=11;fontColor=default;labelBackgroundColor=default;startFill=0;endArrow=oval;startArrow=none;endFill=1;" parent="1" source="PIqyHLtoEeau26eMTD7V-3" target="PIqyHLtoEeau26eMTD7V-65" edge="1">
          <mxGeometry relative="1" as="geometry" />
        </mxCell>
        <mxCell id="PIqyHLtoEeau26eMTD7V-3" value="numeros_rifa" style="rounded=0;whiteSpace=wrap;html=1;" parent="1" vertex="1">
          <mxGeometry x="510" y="390" width="120" height="60" as="geometry" />
        </mxCell>
        <mxCell id="PIqyHLtoEeau26eMTD7V-39" style="edgeStyle=none;shape=connector;rounded=0;orthogonalLoop=1;jettySize=auto;html=1;strokeColor=default;align=center;verticalAlign=middle;fontFamily=Helvetica;fontSize=11;fontColor=default;labelBackgroundColor=default;startFill=0;endArrow=none;" parent="1" source="PIqyHLtoEeau26eMTD7V-4" target="PIqyHLtoEeau26eMTD7V-23" edge="1">
          <mxGeometry relative="1" as="geometry" />
        </mxCell>
        <mxCell id="PIqyHLtoEeau26eMTD7V-40" style="edgeStyle=none;shape=connector;rounded=0;orthogonalLoop=1;jettySize=auto;html=1;strokeColor=default;align=center;verticalAlign=middle;fontFamily=Helvetica;fontSize=11;fontColor=default;labelBackgroundColor=default;startFill=0;endArrow=none;" parent="1" source="PIqyHLtoEeau26eMTD7V-4" target="PIqyHLtoEeau26eMTD7V-24" edge="1">
          <mxGeometry relative="1" as="geometry" />
        </mxCell>
        <mxCell id="PIqyHLtoEeau26eMTD7V-41" style="edgeStyle=none;shape=connector;rounded=0;orthogonalLoop=1;jettySize=auto;html=1;strokeColor=default;align=center;verticalAlign=middle;fontFamily=Helvetica;fontSize=11;fontColor=default;labelBackgroundColor=default;startFill=0;endArrow=none;" parent="1" source="PIqyHLtoEeau26eMTD7V-4" target="PIqyHLtoEeau26eMTD7V-25" edge="1">
          <mxGeometry relative="1" as="geometry" />
        </mxCell>
        <mxCell id="PIqyHLtoEeau26eMTD7V-4" value="r&lt;span style=&quot;background-color: transparent; color: light-dark(rgb(0, 0, 0), rgb(255, 255, 255));&quot;&gt;eservas&lt;/span&gt;" style="rounded=0;whiteSpace=wrap;html=1;" parent="1" vertex="1">
          <mxGeometry x="480" y="-15" width="120" height="60" as="geometry" />
        </mxCell>
        <mxCell id="PIqyHLtoEeau26eMTD7V-74" value="N" style="edgeStyle=none;shape=connector;rounded=0;orthogonalLoop=1;jettySize=auto;html=1;entryX=0.5;entryY=0;entryDx=0;entryDy=0;strokeColor=default;align=center;verticalAlign=middle;fontFamily=Helvetica;fontSize=11;fontColor=default;labelBackgroundColor=default;startFill=0;endArrow=oval;endFill=1;" parent="1" source="PIqyHLtoEeau26eMTD7V-6" target="PIqyHLtoEeau26eMTD7V-73" edge="1">
          <mxGeometry relative="1" as="geometry" />
        </mxCell>
        <mxCell id="PIqyHLtoEeau26eMTD7V-6" value="pagos" style="rounded=0;whiteSpace=wrap;html=1;" parent="1" vertex="1">
          <mxGeometry x="480" y="-270" width="120" height="60" as="geometry" />
        </mxCell>
        <mxCell id="PIqyHLtoEeau26eMTD7V-32" style="rounded=0;orthogonalLoop=1;jettySize=auto;html=1;endArrow=none;startFill=0;" parent="1" source="PIqyHLtoEeau26eMTD7V-8" target="PIqyHLtoEeau26eMTD7V-1" edge="1">
          <mxGeometry relative="1" as="geometry" />
        </mxCell>
        <mxCell id="PIqyHLtoEeau26eMTD7V-8" value="nombre" style="ellipse;whiteSpace=wrap;html=1;" parent="1" vertex="1">
          <mxGeometry x="40" y="-50" width="90" height="50" as="geometry" />
        </mxCell>
        <mxCell id="PIqyHLtoEeau26eMTD7V-34" style="edgeStyle=none;shape=connector;rounded=0;orthogonalLoop=1;jettySize=auto;html=1;strokeColor=default;align=center;verticalAlign=middle;fontFamily=Helvetica;fontSize=11;fontColor=default;labelBackgroundColor=default;startFill=0;endArrow=none;" parent="1" source="PIqyHLtoEeau26eMTD7V-9" target="PIqyHLtoEeau26eMTD7V-1" edge="1">
          <mxGeometry relative="1" as="geometry" />
        </mxCell>
        <mxCell id="PIqyHLtoEeau26eMTD7V-9" value="email" style="ellipse;whiteSpace=wrap;html=1;" parent="1" vertex="1">
          <mxGeometry x="40" y="70" width="90" height="50" as="geometry" />
        </mxCell>
        <mxCell id="PIqyHLtoEeau26eMTD7V-33" style="edgeStyle=none;shape=connector;rounded=0;orthogonalLoop=1;jettySize=auto;html=1;strokeColor=default;align=center;verticalAlign=middle;fontFamily=Helvetica;fontSize=11;fontColor=default;labelBackgroundColor=default;startFill=0;endArrow=none;" parent="1" source="PIqyHLtoEeau26eMTD7V-10" target="PIqyHLtoEeau26eMTD7V-1" edge="1">
          <mxGeometry relative="1" as="geometry" />
        </mxCell>
        <mxCell id="PIqyHLtoEeau26eMTD7V-10" value="google_id" style="ellipse;whiteSpace=wrap;html=1;" parent="1" vertex="1">
          <mxGeometry x="40" y="10" width="90" height="50" as="geometry" />
        </mxCell>
        <mxCell id="PIqyHLtoEeau26eMTD7V-35" style="edgeStyle=none;shape=connector;rounded=0;orthogonalLoop=1;jettySize=auto;html=1;strokeColor=default;align=center;verticalAlign=middle;fontFamily=Helvetica;fontSize=11;fontColor=default;labelBackgroundColor=default;startFill=0;endArrow=none;" parent="1" source="PIqyHLtoEeau26eMTD7V-11" target="PIqyHLtoEeau26eMTD7V-1" edge="1">
          <mxGeometry relative="1" as="geometry" />
        </mxCell>
        <mxCell id="PIqyHLtoEeau26eMTD7V-11" value="avatar" style="ellipse;whiteSpace=wrap;html=1;" parent="1" vertex="1">
          <mxGeometry x="40" y="130" width="90" height="50" as="geometry" />
        </mxCell>
        <mxCell id="PIqyHLtoEeau26eMTD7V-31" style="rounded=0;orthogonalLoop=1;jettySize=auto;html=1;endArrow=none;startFill=0;" parent="1" source="PIqyHLtoEeau26eMTD7V-12" target="PIqyHLtoEeau26eMTD7V-1" edge="1">
          <mxGeometry relative="1" as="geometry" />
        </mxCell>
        <mxCell id="PIqyHLtoEeau26eMTD7V-12" value="&lt;u&gt;id&lt;/u&gt;" style="ellipse;whiteSpace=wrap;html=1;" parent="1" vertex="1">
          <mxGeometry x="40" y="-110" width="90" height="50" as="geometry" />
        </mxCell>
        <mxCell id="PIqyHLtoEeau26eMTD7V-14" value="&lt;u&gt;id&lt;/u&gt;" style="ellipse;whiteSpace=wrap;html=1;" parent="1" vertex="1">
          <mxGeometry x="85" y="270" width="90" height="50" as="geometry" />
        </mxCell>
        <mxCell id="PIqyHLtoEeau26eMTD7V-53" style="edgeStyle=none;shape=connector;rounded=0;orthogonalLoop=1;jettySize=auto;html=1;strokeColor=default;align=center;verticalAlign=middle;fontFamily=Helvetica;fontSize=11;fontColor=default;labelBackgroundColor=default;startFill=0;endArrow=none;" parent="1" source="PIqyHLtoEeau26eMTD7V-15" target="PIqyHLtoEeau26eMTD7V-2" edge="1">
          <mxGeometry relative="1" as="geometry">
            <mxPoint x="110" y="396.3636363636365" as="targetPoint" />
          </mxGeometry>
        </mxCell>
        <mxCell id="PIqyHLtoEeau26eMTD7V-15" value="titulo" style="ellipse;whiteSpace=wrap;html=1;" parent="1" vertex="1">
          <mxGeometry x="85" y="330" width="90" height="50" as="geometry" />
        </mxCell>
        <mxCell id="PIqyHLtoEeau26eMTD7V-16" value="descripcion" style="ellipse;whiteSpace=wrap;html=1;" parent="1" vertex="1">
          <mxGeometry x="85" y="390" width="90" height="50" as="geometry" />
        </mxCell>
        <mxCell id="PIqyHLtoEeau26eMTD7V-17" value="precio_por_numero" style="ellipse;whiteSpace=wrap;html=1;" parent="1" vertex="1">
          <mxGeometry x="60" y="450" width="140" height="50" as="geometry" />
        </mxCell>
        <mxCell id="PIqyHLtoEeau26eMTD7V-18" value="total_numeros" style="ellipse;whiteSpace=wrap;html=1;" parent="1" vertex="1">
          <mxGeometry x="110" y="510" width="90" height="50" as="geometry" />
        </mxCell>
        <mxCell id="PIqyHLtoEeau26eMTD7V-19" value="fechas&lt;span style=&quot;color: rgba(0, 0, 0, 0); font-family: monospace; font-size: 0px; text-align: start; text-wrap-mode: nowrap;&quot;&gt;%3CmxGraphModel%3E%3Croot%3E%3CmxCell%20id%3D%220%22%2F%3E%3CmxCell%20id%3D%221%22%20parent%3D%220%22%2F%3E%3CmxCell%20id%3D%222%22%20value%3D%22id%22%20style%3D%22ellipse%3BwhiteSpace%3Dwrap%3Bhtml%3D1%3B%22%20vertex%3D%221%22%20parent%3D%221%22%3E%3CmxGeometry%20x%3D%22170%22%20y%3D%22360%22%20width%3D%2290%22%20height%3D%2250%22%20as%3D%22geometry%22%2F%3E%3C%2FmxCell%3E%3C%2Froot%3E%3C%2FmxGraphModel%3E&lt;/span&gt;" style="ellipse;whiteSpace=wrap;html=1;" parent="1" vertex="1">
          <mxGeometry x="110" y="570" width="90" height="50" as="geometry" />
        </mxCell>
        <mxCell id="PIqyHLtoEeau26eMTD7V-20" value="estado" style="ellipse;whiteSpace=wrap;html=1;" parent="1" vertex="1">
          <mxGeometry x="110" y="630" width="90" height="50" as="geometry" />
        </mxCell>
        <mxCell id="PIqyHLtoEeau26eMTD7V-61" style="edgeStyle=none;shape=connector;rounded=0;orthogonalLoop=1;jettySize=auto;html=1;strokeColor=default;align=center;verticalAlign=middle;fontFamily=Helvetica;fontSize=11;fontColor=default;labelBackgroundColor=default;startFill=0;endArrow=none;" parent="1" source="PIqyHLtoEeau26eMTD7V-21" target="PIqyHLtoEeau26eMTD7V-3" edge="1">
          <mxGeometry relative="1" as="geometry" />
        </mxCell>
        <mxCell id="PIqyHLtoEeau26eMTD7V-21" value="numero" style="ellipse;whiteSpace=wrap;html=1;" parent="1" vertex="1">
          <mxGeometry x="710" y="400" width="90" height="50" as="geometry" />
        </mxCell>
        <mxCell id="PIqyHLtoEeau26eMTD7V-57" style="edgeStyle=none;shape=connector;rounded=0;orthogonalLoop=1;jettySize=auto;html=1;strokeColor=default;align=center;verticalAlign=middle;fontFamily=Helvetica;fontSize=11;fontColor=default;labelBackgroundColor=default;startFill=0;endArrow=none;" parent="1" source="PIqyHLtoEeau26eMTD7V-22" target="PIqyHLtoEeau26eMTD7V-54" edge="1">
          <mxGeometry relative="1" as="geometry" />
        </mxCell>
        <mxCell id="PIqyHLtoEeau26eMTD7V-58" style="edgeStyle=none;shape=connector;rounded=0;orthogonalLoop=1;jettySize=auto;html=1;strokeColor=default;align=center;verticalAlign=middle;fontFamily=Helvetica;fontSize=11;fontColor=default;labelBackgroundColor=default;startFill=0;endArrow=none;" parent="1" source="PIqyHLtoEeau26eMTD7V-22" target="PIqyHLtoEeau26eMTD7V-55" edge="1">
          <mxGeometry relative="1" as="geometry" />
        </mxCell>
        <mxCell id="PIqyHLtoEeau26eMTD7V-59" style="edgeStyle=none;shape=connector;rounded=0;orthogonalLoop=1;jettySize=auto;html=1;strokeColor=default;align=center;verticalAlign=middle;fontFamily=Helvetica;fontSize=11;fontColor=default;labelBackgroundColor=default;startFill=0;endArrow=none;" parent="1" source="PIqyHLtoEeau26eMTD7V-22" target="PIqyHLtoEeau26eMTD7V-56" edge="1">
          <mxGeometry relative="1" as="geometry" />
        </mxCell>
        <mxCell id="PIqyHLtoEeau26eMTD7V-22" value="estado" style="ellipse;whiteSpace=wrap;html=1;" parent="1" vertex="1">
          <mxGeometry x="710" y="460" width="90" height="50" as="geometry" />
        </mxCell>
        <mxCell id="PIqyHLtoEeau26eMTD7V-23" value="estado&lt;span style=&quot;color: rgba(0, 0, 0, 0); font-family: monospace; font-size: 0px; text-align: start; text-wrap-mode: nowrap;&quot;&gt;%3CmxGraphModel%3E%3Croot%3E%3CmxCell%20id%3D%220%22%2F%3E%3CmxCell%20id%3D%221%22%20parent%3D%220%22%2F%3E%3CmxCell%20id%3D%222%22%20value%3D%22numero%22%20style%3D%22ellipse%3BwhiteSpace%3Dwrap%3Bhtml%3D1%3B%22%20vertex%3D%221%22%20parent%3D%221%22%3E%3CmxGeometry%20x%3D%22570%22%20y%3D%22470%22%20width%3D%2290%22%20height%3D%2250%22%20as%3D%22geometry%22%2F%3E%3C%2FmxCell%3E%3C%2Froot%3E%3C%2FmxGraphModel%3E&lt;/span&gt;" style="ellipse;whiteSpace=wrap;html=1;" parent="1" vertex="1">
          <mxGeometry x="680" y="-60" width="90" height="50" as="geometry" />
        </mxCell>
        <mxCell id="PIqyHLtoEeau26eMTD7V-24" value="reservado_en" style="ellipse;whiteSpace=wrap;html=1;" parent="1" vertex="1">
          <mxGeometry x="680" width="90" height="50" as="geometry" />
        </mxCell>
        <mxCell id="PIqyHLtoEeau26eMTD7V-25" value="expira_en" style="ellipse;whiteSpace=wrap;html=1;" parent="1" vertex="1">
          <mxGeometry x="680" y="60" width="90" height="50" as="geometry" />
        </mxCell>
        <mxCell id="PIqyHLtoEeau26eMTD7V-68" style="edgeStyle=none;shape=connector;rounded=0;orthogonalLoop=1;jettySize=auto;html=1;strokeColor=default;align=center;verticalAlign=middle;fontFamily=Helvetica;fontSize=11;fontColor=default;labelBackgroundColor=default;startFill=0;endArrow=none;" parent="1" source="PIqyHLtoEeau26eMTD7V-26" target="PIqyHLtoEeau26eMTD7V-6" edge="1">
          <mxGeometry relative="1" as="geometry">
            <mxPoint x="670" y="-378.6206896551723" as="targetPoint" />
          </mxGeometry>
        </mxCell>
        <mxCell id="PIqyHLtoEeau26eMTD7V-26" value="&lt;u&gt;id_pago_mp&lt;/u&gt;" style="ellipse;whiteSpace=wrap;html=1;" parent="1" vertex="1">
          <mxGeometry x="420" y="-335" width="90" height="50" as="geometry" />
        </mxCell>
        <mxCell id="PIqyHLtoEeau26eMTD7V-69" style="edgeStyle=none;shape=connector;rounded=0;orthogonalLoop=1;jettySize=auto;html=1;strokeColor=default;align=center;verticalAlign=middle;fontFamily=Helvetica;fontSize=11;fontColor=default;labelBackgroundColor=default;startFill=0;endArrow=none;" parent="1" source="PIqyHLtoEeau26eMTD7V-27" target="PIqyHLtoEeau26eMTD7V-6" edge="1">
          <mxGeometry relative="1" as="geometry">
            <mxPoint x="670" y="-353.7931034482758" as="targetPoint" />
          </mxGeometry>
        </mxCell>
        <mxCell id="PIqyHLtoEeau26eMTD7V-27" value="estado" style="ellipse;whiteSpace=wrap;html=1;" parent="1" vertex="1">
          <mxGeometry x="525" y="-335" width="90" height="50" as="geometry" />
        </mxCell>
        <mxCell id="PIqyHLtoEeau26eMTD7V-70" style="edgeStyle=none;shape=connector;rounded=0;orthogonalLoop=1;jettySize=auto;html=1;strokeColor=default;align=center;verticalAlign=middle;fontFamily=Helvetica;fontSize=11;fontColor=default;labelBackgroundColor=default;startFill=0;endArrow=none;" parent="1" source="PIqyHLtoEeau26eMTD7V-28" target="PIqyHLtoEeau26eMTD7V-6" edge="1">
          <mxGeometry relative="1" as="geometry" />
        </mxCell>
        <mxCell id="PIqyHLtoEeau26eMTD7V-28" value="monto" style="ellipse;whiteSpace=wrap;html=1;" parent="1" vertex="1">
          <mxGeometry x="630" y="-335" width="90" height="50" as="geometry" />
        </mxCell>
        <mxCell id="PIqyHLtoEeau26eMTD7V-71" style="edgeStyle=none;shape=connector;rounded=0;orthogonalLoop=1;jettySize=auto;html=1;strokeColor=default;align=center;verticalAlign=middle;fontFamily=Helvetica;fontSize=11;fontColor=default;labelBackgroundColor=default;startFill=0;endArrow=none;" parent="1" source="PIqyHLtoEeau26eMTD7V-29" target="PIqyHLtoEeau26eMTD7V-6" edge="1">
          <mxGeometry relative="1" as="geometry" />
        </mxCell>
        <mxCell id="PIqyHLtoEeau26eMTD7V-29" value="metodo_pago" style="ellipse;whiteSpace=wrap;html=1;" parent="1" vertex="1">
          <mxGeometry x="630" y="-255" width="90" height="50" as="geometry" />
        </mxCell>
        <mxCell id="PIqyHLtoEeau26eMTD7V-72" style="edgeStyle=none;shape=connector;rounded=0;orthogonalLoop=1;jettySize=auto;html=1;strokeColor=default;align=center;verticalAlign=middle;fontFamily=Helvetica;fontSize=11;fontColor=default;labelBackgroundColor=default;startFill=0;endArrow=none;" parent="1" source="PIqyHLtoEeau26eMTD7V-30" target="PIqyHLtoEeau26eMTD7V-6" edge="1">
          <mxGeometry relative="1" as="geometry" />
        </mxCell>
        <mxCell id="PIqyHLtoEeau26eMTD7V-30" value="pagado_en" style="ellipse;whiteSpace=wrap;html=1;" parent="1" vertex="1">
          <mxGeometry x="630" y="-195" width="90" height="50" as="geometry" />
        </mxCell>
        <mxCell id="PIqyHLtoEeau26eMTD7V-38" value="N" style="edgeStyle=none;shape=connector;rounded=0;orthogonalLoop=1;jettySize=auto;html=1;strokeColor=default;align=center;verticalAlign=middle;fontFamily=Helvetica;fontSize=11;fontColor=default;labelBackgroundColor=default;startFill=1;endArrow=none;startArrow=oval;" parent="1" source="PIqyHLtoEeau26eMTD7V-36" target="PIqyHLtoEeau26eMTD7V-4" edge="1">
          <mxGeometry relative="1" as="geometry" />
        </mxCell>
        <mxCell id="PIqyHLtoEeau26eMTD7V-36" value="realiza" style="rhombus;whiteSpace=wrap;html=1;fontFamily=Helvetica;fontSize=11;fontColor=default;labelBackgroundColor=default;" parent="1" vertex="1">
          <mxGeometry x="360" y="-25" width="80" height="80" as="geometry" />
        </mxCell>
        <mxCell id="PIqyHLtoEeau26eMTD7V-43" value="contiene" style="rhombus;whiteSpace=wrap;html=1;fontFamily=Helvetica;fontSize=11;fontColor=default;labelBackgroundColor=default;" parent="1" vertex="1">
          <mxGeometry x="380" y="380" width="80" height="80" as="geometry" />
        </mxCell>
        <mxCell id="PIqyHLtoEeau26eMTD7V-54" value="libre" style="ellipse;whiteSpace=wrap;html=1;" parent="1" vertex="1">
          <mxGeometry x="820" y="460" width="90" height="50" as="geometry" />
        </mxCell>
        <mxCell id="PIqyHLtoEeau26eMTD7V-55" value="reservado" style="ellipse;whiteSpace=wrap;html=1;" parent="1" vertex="1">
          <mxGeometry x="820" y="520" width="90" height="50" as="geometry" />
        </mxCell>
        <mxCell id="PIqyHLtoEeau26eMTD7V-56" value="vendido" style="ellipse;whiteSpace=wrap;html=1;" parent="1" vertex="1">
          <mxGeometry x="810" y="580" width="90" height="50" as="geometry" />
        </mxCell>
        <mxCell id="PIqyHLtoEeau26eMTD7V-60" style="edgeStyle=none;shape=connector;rounded=0;orthogonalLoop=1;jettySize=auto;html=1;strokeColor=default;align=center;verticalAlign=middle;fontFamily=Helvetica;fontSize=11;fontColor=default;labelBackgroundColor=default;startFill=0;endArrow=none;" parent="1" source="PIqyHLtoEeau26eMTD7V-22" target="PIqyHLtoEeau26eMTD7V-3" edge="1">
          <mxGeometry relative="1" as="geometry" />
        </mxCell>
        <mxCell id="PIqyHLtoEeau26eMTD7V-64" value="N" style="edgeStyle=none;shape=connector;rounded=0;orthogonalLoop=1;jettySize=auto;html=1;strokeColor=default;align=center;verticalAlign=middle;fontFamily=Helvetica;fontSize=11;fontColor=default;labelBackgroundColor=default;startFill=1;endArrow=none;endFill=1;startArrow=oval;exitX=0.5;exitY=0;exitDx=0;exitDy=0;" parent="1" source="PIqyHLtoEeau26eMTD7V-62" target="PIqyHLtoEeau26eMTD7V-4" edge="1">
          <mxGeometry relative="1" as="geometry" />
        </mxCell>
        <mxCell id="PIqyHLtoEeau26eMTD7V-62" value="permite_reservas" style="rhombus;whiteSpace=wrap;html=1;fontFamily=Helvetica;fontSize=11;fontColor=default;labelBackgroundColor=default;" parent="1" vertex="1">
          <mxGeometry x="330" y="200" width="120" height="80" as="geometry" />
        </mxCell>
        <mxCell id="PIqyHLtoEeau26eMTD7V-67" value="1" style="edgeStyle=none;shape=connector;rounded=0;orthogonalLoop=1;jettySize=auto;html=1;strokeColor=default;align=center;verticalAlign=middle;fontFamily=Helvetica;fontSize=11;fontColor=default;labelBackgroundColor=default;startFill=0;endArrow=none;" parent="1" source="PIqyHLtoEeau26eMTD7V-65" target="PIqyHLtoEeau26eMTD7V-4" edge="1">
          <mxGeometry relative="1" as="geometry" />
        </mxCell>
        <mxCell id="PIqyHLtoEeau26eMTD7V-65" value="asociados_a" style="rhombus;whiteSpace=wrap;html=1;fontFamily=Helvetica;fontSize=11;fontColor=default;labelBackgroundColor=default;" parent="1" vertex="1">
          <mxGeometry x="520" y="200" width="100" height="80" as="geometry" />
        </mxCell>
        <mxCell id="PIqyHLtoEeau26eMTD7V-75" value="1" style="edgeStyle=none;shape=connector;rounded=0;orthogonalLoop=1;jettySize=auto;html=1;strokeColor=default;align=center;verticalAlign=middle;fontFamily=Helvetica;fontSize=11;fontColor=default;labelBackgroundColor=default;startFill=0;endArrow=none;" parent="1" source="PIqyHLtoEeau26eMTD7V-73" target="PIqyHLtoEeau26eMTD7V-4" edge="1">
          <mxGeometry relative="1" as="geometry" />
        </mxCell>
        <mxCell id="PIqyHLtoEeau26eMTD7V-73" value="genera" style="rhombus;whiteSpace=wrap;html=1;fontFamily=Helvetica;fontSize=11;fontColor=default;labelBackgroundColor=default;" parent="1" vertex="1">
          <mxGeometry x="500" y="-150" width="80" height="80" as="geometry" />
        </mxCell>
        <mxCell id="PIqyHLtoEeau26eMTD7V-81" style="edgeStyle=none;shape=connector;rounded=0;orthogonalLoop=1;jettySize=auto;html=1;strokeColor=default;align=center;verticalAlign=middle;fontFamily=Helvetica;fontSize=11;fontColor=default;labelBackgroundColor=default;startFill=0;endArrow=none;" parent="1" source="PIqyHLtoEeau26eMTD7V-80" target="PIqyHLtoEeau26eMTD7V-2" edge="1">
          <mxGeometry relative="1" as="geometry" />
        </mxCell>
        <mxCell id="PIqyHLtoEeau26eMTD7V-80" value="id_ganador" style="ellipse;whiteSpace=wrap;html=1;" parent="1" vertex="1">
          <mxGeometry x="210" y="630" width="90" height="50" as="geometry" />
        </mxCell>
        <mxCell id="PIqyHLtoEeau26eMTD7V-86" style="edgeStyle=none;shape=connector;rounded=0;orthogonalLoop=1;jettySize=auto;html=1;strokeColor=default;align=center;verticalAlign=middle;fontFamily=Helvetica;fontSize=11;fontColor=default;labelBackgroundColor=default;startFill=0;endArrow=none;" parent="1" source="PIqyHLtoEeau26eMTD7V-85" target="PIqyHLtoEeau26eMTD7V-4" edge="1">
          <mxGeometry relative="1" as="geometry" />
        </mxCell>
        <mxCell id="PIqyHLtoEeau26eMTD7V-85" value="&lt;u&gt;id&lt;/u&gt;" style="ellipse;whiteSpace=wrap;html=1;" parent="1" vertex="1">
          <mxGeometry x="680" y="-120" width="90" height="50" as="geometry" />
        </mxCell>
        <mxCell id="PIqyHLtoEeau26eMTD7V-88" style="edgeStyle=none;shape=connector;rounded=0;orthogonalLoop=1;jettySize=auto;html=1;strokeColor=default;align=center;verticalAlign=middle;fontFamily=Helvetica;fontSize=11;fontColor=default;labelBackgroundColor=default;startFill=0;endArrow=none;" parent="1" source="PIqyHLtoEeau26eMTD7V-87" target="PIqyHLtoEeau26eMTD7V-3" edge="1">
          <mxGeometry relative="1" as="geometry" />
        </mxCell>
        <mxCell id="PIqyHLtoEeau26eMTD7V-87" value="&lt;u&gt;id&lt;/u&gt;" style="ellipse;whiteSpace=wrap;html=1;" parent="1" vertex="1">
          <mxGeometry x="710" y="340" width="90" height="50" as="geometry" />
        </mxCell>
      </root>
    </mxGraphModel>
  </diagram>
</mxfile>
